<?xml version="1.0" standalone="no"?>
<!DOCTYPE svg PUBLIC "-//W3C//DTD SVG 20010904//EN"
 "http://www.w3.org/TR/2001/REC-SVG-20010904/DTD/svg10.dtd">
<svg version="1.0" xmlns="http://www.w3.org/2000/svg"
 width="700.000000pt" height="700.000000pt" viewBox="0 0 700.000000 700.000000"
 preserveAspectRatio="xMidYMid meet">
<metadata>
Created by potrace 1.11, written by Peter Selinger 2001-2013
</metadata>
<g transform="translate(0.000000,700.000000) scale(0.100000,-0.100000)"
fill="#000000" stroke="none">
<path d="M507 6404 c-83 -21 -153 -80 -190 -162 l-22 -47 -2 -2250 -2 -2250
28 -60 c41 -88 119 -154 202 -170 13 -3 506 -6 1094 -6 862 -1 1082 -4 1134
-15 181 -38 340 -170 410 -339 35 -84 40 -104 47 -215 9 -138 65 -229 173
-282 64 -31 176 -31 242 1 80 38 147 119 163 196 3 17 8 64 11 105 10 146 59
259 159 364 83 88 166 137 297 173 13 4 518 8 1121 10 1070 3 1098 3 1150 23
64 24 130 85 161 149 l22 46 3 2240 c2 2460 6 2294 -58 2383 -37 52 -93 89
-156 106 -38 10 -255 13 -974 13 -968 0 -1024 -2 -1198 -42 -191 -45 -433
-164 -577 -285 -48 -40 -178 -172 -213 -215 l-32 -40 -20 25 c-85 104 -190
203 -315 298 -34 26 -146 88 -217 121 -132 62 -248 96 -428 127 -19 4 -469 8
-1000 9 -747 1 -976 -1 -1013 -11z m1973 -584 c279 -52 510 -222 635 -471 25
-48 61 -148 71 -194 2 -11 7 -31 10 -45 7 -23 14 -3220 8 -3220 -2 0 -34 15
-71 34 -123 60 -252 98 -393 112 -30 3 -462 6 -960 6 l-905 1 0 1886 c0 1037
3 1891 7 1896 9 15 1514 11 1598 -5z m3620 11 l25 -1 0 -1894 0 -1893 -900 0
c-495 0 -928 -3 -963 -7 -135 -14 -289 -58 -405 -116 -33 -16 -61 -30 -62 -30
-1 0 -1 721 0 1603 l2 1602 21 80 c83 301 310 537 598 621 124 36 197 39 935
37 398 -1 735 -2 749 -2z"/>
</g>
</svg>
